 <svg  viewBox="0 0 22 18" id="image-hdd" xmlns="http://www.w3.org/2000/svg">
    <path fill="#bac0ca"
        d="M423 620v14c0 1.102-.898 2-2 2h-18c-1.103 0-2-.898-2-2v-14c0-1.103.897-2 2-2h18c1.102 0 2 .897 2 2zm-2 0h-18.002l.002 14h18zm-13 7c0-3.309 2.691-6 6-6 3.308 0 6 2.691 6 6 0 3.308-2.692 6-6 6-3.309 0-6-2.692-6-6zm2 0c0 2.206 1.794 4 4 4s4-1.794 4-4-1.794-4-4-4-4 1.794-4 4zm2 0a2 2 0 114 0 2 2 0 01-4 0zm-8-5a1 1 0 112 0 1 1 0 01-2 0zm0 10a1 1 0 112 0 1 1 0 01-2 0z" transform="translate(-401 -618)"/>
</svg>