 <svg viewBox="0 0 20 20" id="image-raid" xmlns="http://www.w3.org/2000/svg">
    <path fill="#bac0ca" 
        d="M402 602c0-.364.097-.706.268-1a1.99 1.99 0 01-.268-1v-4c0-.364.097-.706.268-1a1.99 1.99 0 01-.268-1v-4a2 2 0 012-2h16a2 2 0 012 2v4c0 .364-.097.706-.268 1 .17.294.268.636.268 1v4c0 .364-.097.706-.268 1 .17.294.268.636.268 1v4a2 2 0 01-2 2h-16a2 2 0 01-2-2zm18 4v-4h-16v4zm-14-3a1 1 0 110 2 1 1 0 010-2zm3 0a1 1 0 110 2 1 1 0 010-2zm11-3v-4h-16v4zm-14-3a1 1 0 110 2 1 1 0 010-2zm3 0a1 1 0 110 2 1 1 0 010-2zm11-3v-4h-16v4zm-14-3a1 1 0 110 2 1 1 0 010-2zm3 0a1 1 0 110 2 1 1 0 010-2z" transform="translate(-402 -588)"/>
</svg>