 <svg viewBox="0 0 20 21" id="image-cart-add" xmlns="http://www.w3.org/2000/svg">
    <path fill="#fff"
        d="M578.015 705h1.97v-3h3v-2.016h-3v-3h-1.97v3h-3V702h3zm-4.03 9c-.563 0-1.032.195-1.407.586a1.988 1.988 0 00-.563 1.429c0 .563.188 1.031.563 1.407.375.375.844.562 1.406.562.563 0 1.039-.187 1.43-.562.39-.376.586-.844.586-1.407 0-.562-.196-1.038-.586-1.43a1.947 1.947 0 00-1.43-.585zm10.03 0c-.562 0-1.039.195-1.43.586a1.944 1.944 0 00-.585 1.429c0 .563.195 1.031.586 1.407.39.375.867.562 1.43.562.562 0 1.03-.187 1.406-.562.375-.376.562-.844.562-1.407a1.99 1.99 0 00-.562-1.43c-.375-.39-.844-.585-1.407-.585zm-9.609-3c-.125 0-.203-.078-.234-.235l.047-.14.89-1.64h7.453c.375 0 .71-.095 1.008-.282.297-.188.54-.437.727-.75l3.843-6.985-1.734-.984-3.844 7.031h-7.031l-4.266-9h-3.28v1.97H570l3.61 7.593-1.36 2.484a1.893 1.893 0 00-.235.938c0 .562.188 1.03.563 1.406.375.375.844.578 1.406.61h12V711z" transform="translate(-568 -697)"/>
</svg>