<svg viewBox="0 0 20 11" id="image-vk" xmlns="http://www.w3.org/2000/svg" xmlns:xlink="http://www.w3.org/1999/xlink">
    <defs>
        <path fill="#0684bd" id="cna" 
            d="M411.336 2218.523c-.735 1.141-1.157 1.782-1.266 1.922a.83.83 0 00-.187.399c-.016.125.039.274.164.445.124.172.328.391.61.656.28.266.546.54.796.82.437.5.812.946 1.125 1.336.312.391.516.743.61 1.055.124.563-.11.844-.704.844h-2.015c-.375 0-.703-.164-.985-.492a43.66 43.66 0 00-1.406-1.524c-.594-.562-1.047-.921-1.36-1.078-.312-.156-.546-.234-.702-.234-.157 0-.274.047-.352.14-.078.094-.117.282-.117.563v1.828c0 .25-.087.445-.258.586-.172.14-.57.21-1.195.21-1.095 0-2.188-.311-3.281-.937-1.095-.624-2.063-1.546-2.907-2.765-1.25-1.782-2.102-3.273-2.555-4.477-.453-1.202-.664-1.96-.632-2.273-.032-.125 0-.25.093-.375.094-.125.282-.188.563-.188h2.062c.25 0 .438.063.563.188.125.125.234.328.328.61.531 1.5 1.132 2.765 1.805 3.796.671 1.031 1.195 1.578 1.57 1.64.125 0 .211-.053.258-.163.047-.11.07-.32.07-.633v-3c-.031-.625-.164-1.055-.398-1.29-.235-.234-.368-.46-.399-.679.031-.25.203-.406.516-.469h3.187c.406 0 .594.25.563.75v4.032c0 .219.039.367.117.445a.357.357 0 00.258.117c.094 0 .211-.047.351-.14a6.09 6.09 0 00.586-.47 14.278 14.278 0 001.758-2.671c.453-.906.695-1.406.727-1.5.062-.125.156-.25.281-.375.125-.125.312-.188.563-.188h2.062c.281 0 .469.07.563.211.093.14.109.32.046.54-.25.718-.742 1.648-1.476 2.788z"/>
    </defs>
    <use xlink:href="#cna" transform="translate(-394 -2215)"/>
</svg>
