<svg width="18" height="15" viewBox="0 0 18 15" id="image-mail" xmlns="http://www.w3.org/2000/svg" xmlns:xlink="http://www.w3.org/1999/xlink">
    <defs>
        <path fill="rgba(255, 255, 255, 0.25)" id="bla"
            d="M1242.32 2299.82h13.36c.468.026.859.196 1.172.508.312.313.468.703.468 1.172v10c0 .469-.156.86-.468 1.172a1.732 1.732 0 01-1.172.508h-13.36a1.732 1.732 0 01-1.172-.508c-.312-.313-.468-.703-.468-1.172v-10c0-.469.156-.86.468-1.172a1.735 1.735 0 011.172-.508zm6.68 5.86l6.68-4.18h-13.36zm-6.68 5.82h13.36v-8.008l-6.68 4.14-6.68-4.14z" />
    </defs>
    <use xlink:href="#bla" transform="translate(-1240 -2299)" />
</svg>