 <svg width="18" height="17" viewBox="0 0 18 17" id="image-wapp" xmlns="http://www.w3.org/2000/svg" xmlns:xlink="http://www.w3.org/1999/xlink">
    <defs>
        <path fill="rgba(255, 255, 255, 0.25)" id="coa"
            d="M1252.945 2229.14c.208.079.332.15.371.215.04.066.052.19.04.371a2.12 2.12 0 01-.176.645c-.105.248-.313.463-.625.644-.313.183-.586.274-.82.274-.131.052-.327.072-.587.059-.26-.013-.885-.228-1.875-.645-1.042-.52-1.855-1.158-2.441-1.914-.586-.755-.912-1.191-.977-1.309a55.724 55.724 0 01-.43-.8 2.789 2.789 0 01-.312-1.407c.013-.52.11-.91.293-1.172.182-.26.338-.442.469-.546.234-.208.43-.287.586-.235h.39c.052 0 .118.014.196.04.078.025.156.143.234.35l.586 1.563c.078.105.078.222 0 .352l-.195.352-.352.351a.516.516 0 00-.117.176c-.026.065-.013.15.04.254.051.104.175.3.37.586.196.287.436.585.723.898.39.339.729.586 1.016.742l.624.313c.182.13.326.117.43-.04l.664-.78c.078-.079.157-.118.235-.118.078 0 .169.014.273.04zm-3.945-9.96c2.37.052 4.336.859 5.898 2.421 1.563 1.563 2.37 3.53 2.422 5.899-.052 2.37-.86 4.336-2.422 5.898-1.562 1.563-3.529 2.37-5.898 2.422-1.667-.026-3.151-.456-4.453-1.289l-3.867 1.29 1.289-3.868c-.834-1.302-1.264-2.786-1.29-4.453.052-2.37.86-4.336 2.423-5.899 1.562-1.562 3.528-2.369 5.898-2.421zm0 1.64c-1.901.053-3.477.703-4.727 1.953-1.25 1.25-1.9 2.826-1.953 4.727.026 1.459.43 2.734 1.211 3.828l-.781 2.422 2.422-.781c1.094.78 2.37 1.185 3.828 1.21 1.9-.051 3.477-.703 4.726-1.953 1.25-1.25 1.901-2.825 1.954-4.726-.053-1.9-.703-3.477-1.954-4.727-1.25-1.25-2.825-1.9-4.726-1.953z" />
    </defs>
    <use xlink:href="#coa" transform="translate(-1240 -2219)" />
</svg>