<svg width="18" height="17" viewBox="0 0 18 17" id="image-clock" xmlns="http://www.w3.org/2000/svg" xmlns:xlink="http://www.w3.org/1999/xlink">
    <defs>
        <path fill="rgba(255, 255, 255, 0.25)" id="aoa"
            d="M1249 2265.18c1.9-.052 3.477-.704 4.726-1.954 1.25-1.25 1.901-2.825 1.954-4.726-.053-1.9-.704-3.477-1.954-4.727-1.25-1.25-2.825-1.9-4.726-1.953-1.901.053-3.477.703-4.727 1.953-1.25 1.25-1.9 2.826-1.953 4.727.052 1.901.703 3.476 1.953 4.726s2.826 1.902 4.727 1.954zm0-15c2.37.052 4.336.859 5.898 2.421 1.563 1.563 2.37 3.53 2.422 5.899-.052 2.37-.86 4.336-2.422 5.898-1.562 1.563-3.529 2.37-5.898 2.422-2.37-.052-4.336-.865-5.898-2.441-1.563-1.576-2.37-3.535-2.422-5.88.051-2.369.859-4.335 2.422-5.898 1.562-1.562 3.528-2.369 5.898-2.421zm.43 4.14v4.375l3.75 2.227-.625 1.054-4.375-2.656v-5z" />
    </defs>
    <use xlink:href="#aoa" transform="translate(-1240 -2250)" />
</svg>