<svg width="18" height="17" viewBox="0 0 18 17" id="image-loc" xmlns="http://www.w3.org/2000/svg" xmlns:xlink="http://www.w3.org/1999/xlink">
    <defs>
        <path fill="rgba(255, 255, 255, 0.25)" id="bja"
            d="M1244.82 2180.68l2.696-5.664 5.664-2.696-2.696 5.664zm4.18-4.922a.717.717 0 00-.527.214.717.717 0 00-.215.528c0 .209.071.384.215.527a.715.715 0 00.527.215.716.716 0 00.527-.215.717.717 0 00.215-.527.72.72 0 00-.215-.528.72.72 0 00-.527-.214zm0-7.578c2.37.052 4.336.859 5.898 2.422 1.563 1.562 2.37 3.528 2.422 5.898-.052 2.37-.86 4.336-2.422 5.898-1.562 1.563-3.529 2.37-5.898 2.422-2.37-.052-4.336-.86-5.898-2.422-1.563-1.562-2.37-3.528-2.422-5.898.051-2.37.859-4.336 2.422-5.898 1.562-1.563 3.528-2.37 5.898-2.422zm0 1.64c-1.901.053-3.477.703-4.727 1.953-1.25 1.25-1.9 2.826-1.953 4.727.052 1.901.703 3.476 1.953 4.726s2.826 1.902 4.727 1.954c1.9-.052 3.477-.704 4.726-1.954 1.25-1.25 1.901-2.825 1.954-4.726-.053-1.9-.704-3.477-1.954-4.727-1.25-1.25-2.825-1.9-4.726-1.953z" />
    </defs>
    <use xlink:href="#bja" transform="translate(-1240 -2168)" />
</svg>