<svg width="20" height="20" viewBox="0 0 20 20" id="image-insta" xmlns="http://www.w3.org/2000/svg" xmlns:xlink="http://www.w3.org/1999/xlink">
    <defs>
        <path fill="#0684bd" id="bga"
            d="M480.781 2210.015h8.438c1.624.032 2.984.594 4.078 1.688 1.093 1.094 1.656 2.454 1.687 4.078v8.438c-.031 1.625-.594 2.984-1.687 4.078-1.094 1.093-2.454 1.656-4.078 1.687h-8.438c-1.625-.031-2.984-.594-4.078-1.687-1.094-1.094-1.657-2.453-1.687-4.078v-8.438c.03-1.624.593-2.984 1.687-4.078 1.094-1.094 2.453-1.656 4.078-1.688zm-.187 1.97c-1.032.03-1.883.382-2.555 1.054-.672.672-1.024 1.523-1.055 2.555v8.812c.031 1.031.383 1.883 1.055 2.555.672.672 1.524 1.024 2.555 1.054h8.812c1.031-.03 1.883-.382 2.555-1.054.672-.672 1.023-1.524 1.055-2.555v-8.812c-.032-1.032-.383-1.883-1.055-2.555-.672-.672-1.524-1.023-2.555-1.055zm9.656 1.5c.343.03.633.163.867.398.235.234.352.523.352.867s-.117.633-.352.867a1.179 1.179 0 01-.867.352c-.344 0-.633-.118-.867-.352a1.177 1.177 0 01-.352-.867c0-.344.117-.633.352-.867a1.36 1.36 0 01.867-.399zm-5.25 1.5c1.406.03 2.585.523 3.539 1.476.953.953 1.445 2.133 1.477 3.539-.032 1.406-.524 2.586-1.477 3.539-.954.953-2.133 1.446-3.54 1.476-1.405-.03-2.585-.523-3.538-1.476-.954-.953-1.446-2.133-1.477-3.54.031-1.405.523-2.585 1.477-3.538.953-.953 2.133-1.445 3.539-1.477zm0 2.015c-.844.031-1.547.328-2.11.89-.562.563-.843 1.266-.843 2.11 0 .844.281 1.547.844 2.11.562.562 1.265.843 2.109.843.844 0 1.547-.281 2.11-.844.562-.562.843-1.265.843-2.11 0-.843-.281-1.546-.844-2.108-.562-.563-1.265-.86-2.11-.891z" />
    </defs>
    <use xlink:href="#bga" transform="translate(-475 -2210)" />
</svg>