 <svg viewBox="0 0 124 38" id="image-logo" xmlns="http://www.w3.org/2000/svg" xmlns:xlink="http://www.w3.org/1999/xlink">
    <defs>
        <path id="bka"
            d="M447.5 75h-12a1.5 1.5 0 010-3h12a1.5 1.5 0 010 3zm-37 8h-14a1.5 1.5 0 010-3h14a1.5 1.5 0 010 3z" />
        <path id="bkb"
            d="M429.5 75H409c-4.411 0-8-3.59-8-8 0-4.411 3.589-8 8-8h38.5a1.5 1.5 0 010 3H409c-2.757 0-5 2.243-5 5 0 2.756 2.243 5 5 5h20.5a1.5 1.5 0 010 3zM443 96h-51.5a1.5 1.5 0 110-3H443c2.757 0 5-2.243 5-5s-2.243-5-5-5h-26.5a1.5 1.5 0 010-3H443c4.411 0 8 3.589 8 8 0 4.41-3.589 8-8 8zm17-24.076v-.995h2.5v1.194c0 1.194.5 1.592 1.4 1.592.8 0 1.4-.398 1.4-1.592 0-1.605-1.082-2.597-2.25-3.666-1.366-1.254-2.85-2.614-2.85-5.19-.1-2.786 1.2-4.279 3.7-4.279 2.6 0 3.9 1.493 3.9 4.18v.497h-2.5v-.597c0-1.194-.5-1.692-1.3-1.692s-1.3.498-1.3 1.692c0 1.604 1.082 2.596 2.25 3.666 1.366 1.253 2.85 2.613 2.85 5.19 0 2.686-1.3 4.179-3.9 4.179-2.6 0-3.9-1.493-3.9-4.18zm16.4 3.98h-7.2V59.187h7.2v2.388h-4.5v4.677h3.6v2.388h-3.6v4.876h4.5zm9.5-1.99c0 .796 0 1.393.3 1.99h-2.8l-.019-.074c-.093-.366-.181-.71-.181-2.016v-2.587c0-1.592-.5-2.09-1.7-2.09h-.9v6.767H478V59.187h4c2.7 0 3.9 1.294 3.9 3.88v1.294c0 1.692-.5 2.886-1.7 3.384 1.3.597 1.7 1.79 1.7 3.582zm-2.8-10.647c0-1.194-.4-1.692-1.3-1.692h-1.3v5.174h1c1 0 1.6-.398 1.6-1.79zm10.3-4.08h2.4l-2.6 16.717h-3.9l-2.6-16.717h2.7l2 13.632zm3.6 0h7.2v2.388h-4.5v4.677h3.6v2.388h-3.6v4.876h4.5v2.388H497zm17 16.717h-2.8l-.019-.074c-.093-.366-.181-.71-.181-2.016v-2.587c0-1.592-.5-2.09-1.7-2.09h-.9v6.767h-2.6V59.187h4c2.7 0 3.9 1.294 3.9 3.88v1.294c0 1.692-.5 2.886-1.7 3.384 1.3.597 1.7 1.79 1.7 3.582v2.587c0 .796 0 1.393.3 1.99zm-3.1-12.637c0-1.194-.4-1.692-1.3-1.692h-1.3v5.174h1c1 0 1.6-.398 1.6-1.79zm-43 20.895v1.592h-2.5v-1.79c0-1.195-.5-1.692-1.4-1.692-.8 0-1.4.497-1.4 1.691v9.055c0 1.194.5 1.592 1.4 1.592.8 0 1.4-.398 1.4-1.592v-3.184h-1.2v-2.388h3.7v5.373c0 2.687-1.3 4.18-3.9 4.18-2.6 0-3.9-1.493-3.9-4.18v-8.657c0-2.686 1.3-4.179 3.9-4.179 2.6 0 3.9 1.493 3.9 4.18zm7.3-4.08L478 96.8h-2.7l-.5-2.985h-3.2l-.5 2.985h-2.4l2.7-16.716zm-.7 11.444l-1.3-8.458-1.2 8.458zm3.3-11.443h8v2.388h-2.7v14.328h-2.6V82.471h-2.7zm9.2 0h7.2v2.388h-4.5v4.676h3.6v2.388h-3.6v4.876h4.5v2.388H487z" />
    </defs>
    <use fill="#ff9000" xlink:href="#bka" transform="translate(-390 -59)" />
    <use fill="#fff" xlink:href="#bkb" transform="translate(-390 -59)" />
</svg>