<svg viewBox="0 0 66 60" id="image-support" xmlns="http://www.w3.org/2000/svg" xmlns:xlink="http://www.w3.org/1999/xlink">
    <defs>
        <path id="cha"
            d="M347.374 1625.655a1.18 1.18 0 01.02 1.68l-5.042 5.099-.847.858c-7.416 7.49-19.554 7.624-27.136.298l-8.598-8.328a18.876 18.876 0 01-.3-26.876l.84-.857 5.035-5.098a1.2 1.2 0 01.391-.262 1.19 1.19 0 01.327-.069c.041-.01.084-.02.127-.026.325-.026.643.1.863.34l10.296 9.972a1.18 1.18 0 01.018 1.68l-5.041 5.1c-.101.1-.221.18-.352.238a.998.998 0 01-.12.041 1.152 1.152 0 01-.169.059l-1.645.3a3.539 3.539 0 00.024 4.487l1.45 1.754a37.197 37.197 0 005.893 5.712l1.8 1.395a3.629 3.629 0 004.531-.075l.267-1.637c.014-.052.031-.105.05-.155a1.187 1.187 0 01.276-.485l5.042-5.1c.221-.223.523-.352.84-.356.318 0 .623.122.853.339zm-38.51-27.313l8.58 8.311 3.36-3.4-8.58-8.31zm30.928 33.276l-7.811-7.566a1.185 1.185 0 01-.263.443 6.044 6.044 0 01-7.986.528l-1.8-1.397a39.7 39.7 0 01-6.274-6.08l-1.45-1.753a5.9 5.9 0 01.354-7.919 1.19 1.19 0 01.443-.27l-7.812-7.566-.013.013a16.511 16.511 0 00.263 23.514l8.597 8.328c6.633 6.412 17.255 6.294 23.743-.262zm5.037-5.093l-8.58-8.311-3.36 3.4 8.58 8.31zm7.97-28.508v7.131c0 1.97-1.613 3.566-3.6 3.566h-12.002v3.566c0 .48-.293.914-.741 1.098a1.207 1.207 0 01-1.308-.257l-4.449-4.407h-.703c-1.988 0-3.6-1.596-3.6-3.566v-11.886c0-1.969 1.612-3.565 3.6-3.565H339v2.377h-9.004c-.663 0-1.2.532-1.2 1.188v11.886c0 .657.537 1.189 1.2 1.189h1.2c.318 0 .624.125.849.348l2.751 2.726v-1.885c0-.657.538-1.189 1.2-1.189h13.202c.663 0 1.2-.532 1.2-1.189v-7.131h-.545l.147-.018h4l.002.018zm-16.898 3.114c.158.366.12.785-.104 1.116-.223.331-.6.528-1 .524a1.209 1.209 0 01-.456-.083 1.758 1.758 0 01-.397-.261 1.168 1.168 0 01-.252-1.296 1.26 1.26 0 01.252-.392c.289-.28.697-.399 1.093-.321a.787.787 0 01.215.071c.077.026.15.062.217.107l.18.143c.108.114.193.247.252.392zm4.8 0a1.182 1.182 0 01-.37 1.407 1.21 1.21 0 01-1.468 0 1.18 1.18 0 01-.37-1.407c.058-.145.144-.278.252-.392a1.23 1.23 0 011.092-.321.787.787 0 01.216.071c.077.026.15.062.216.107l.18.143c.106.115.191.248.252.392zm2.592 0c.11-.299.347-.534.649-.642.218-.096.462-.12.696-.071a.788.788 0 01.215.071c.074.024.143.06.204.107.072.048.133.095.193.143.106.115.19.248.252.392.127.288.127.615 0 .903a1.403 1.403 0 01-.252.393c-.12.104-.253.192-.397.261a1.2 1.2 0 01-.455.083 1.199 1.199 0 01-.852-.344 1.168 1.168 0 01-.253-1.296z" />
        <path id="chb"
            d="M366 1582.565v11.886c0 1.97-1.612 3.566-3.6 3.566h-.704l-4.449 4.406a1.205 1.205 0 01-1.308.258 1.188 1.188 0 01-.74-1.099v-3.565h-1.197l-.002-.018h-4l-.147.018h-6.656c-1.988 0-3.6-1.597-3.6-3.566v-2.377H339v-2.377h.597v-7.132c0-1.969 1.612-3.565 3.6-3.565H362.4c1.988 0 3.6 1.596 3.6 3.565zm-2.4 0c0-.656-.538-1.188-1.2-1.188h-19.203c-.662 0-1.2.532-1.2 1.188v11.886c0 .657.538 1.189 1.2 1.189H356.4c.663 0 1.2.532 1.2 1.188v1.885l2.752-2.725c.225-.223.53-.348.848-.348h1.2c.663 0 1.2-.532 1.2-1.189zm-9.95 1.534c.22.227.344.529.349.844 0 .656-.538 1.188-1.2 1.188-.663 0-1.2-.532-1.2-1.188a1.24 1.24 0 01.347-.844c.113-.11.248-.195.397-.25a1.208 1.208 0 011.308.25zm-2.052 3.22h2.4v5.943h-2.4z" />
    </defs>
    <use fill="#d7dde3" xlink:href="#cha" transform="translate(-300 -1579)" />
    <use fill="#ff9000" xlink:href="#chb" transform="translate(-300 -1579)" />
</svg>