<svg viewBox="0 0 60 60" id="image-delivery" xmlns="http://www.w3.org/2000/svg" xmlns:xlink="http://www.w3.org/1999/xlink">
    <defs>
        <path id="ava"
            d="M918.484 879.312h-35.478a8.22 8.22 0 01-7.412 4.688c-4.524 0-8.203-3.68-8.203-8.203a8.22 8.22 0 014.687-7.413v-37.353h-6.562a3.52 3.52 0 01-3.516-3.516 3.52 3.52 0 013.516-3.515h10.078a3.52 3.52 0 013.515 3.515v40.87a8.154 8.154 0 013.897 3.896h35.478a3.52 3.52 0 013.516 3.516 3.52 3.52 0 01-3.516 3.515zm-41.718-51.797c0-.646-.526-1.172-1.172-1.172h-10.078a1.173 1.173 0 000 2.344h7.734c.647 0 1.172.525 1.172 1.172v37.82a8.24 8.24 0 012.344 0zm-1.172 42.422c-3.274 0-5.86 2.664-5.86 5.86a5.867 5.867 0 005.86 5.859c3.196 0 5.859-2.585 5.859-5.86 0-3.193-2.586-5.859-5.86-5.859zm42.89 4.688h-34.772a8.251 8.251 0 010 2.344h34.772a1.173 1.173 0 000-2.344zm-42.89 4.687a3.52 3.52 0 01-3.516-3.515 3.52 3.52 0 013.516-3.516 3.52 3.52 0 013.515 3.516 3.52 3.52 0 01-3.515 3.515zm0-4.687a1.173 1.173 0 000 2.344 1.173 1.173 0 000-2.344zm31.64-28.828V831.03h-5.86v8.906a1.172 1.172 0 01-1.821.975l-2.866-1.91-2.865 1.91a1.172 1.172 0 01-1.822-.975v-8.906h-5.86v14.766h-2l-.343.203v-16.14c0-.648.524-1.173 1.172-1.173h23.437c.647 0 1.172.525 1.172 1.172v15.938zm-8.203-14.766h-4.687v6.716l1.693-1.128a1.17 1.17 0 011.3 0l1.694 1.128z" />
        <path id="avb"
            d="M883.797 872.281V846l.343-.203h31.297c.648 0 1.172.524 1.172 1.172v25.312h-2.343v-24.14h-8.204v12.421a1.173 1.173 0 01-1.875.938l-3.984-2.989-3.984 2.989a1.172 1.172 0 01-1.875-.938V848.14h-8.204v24.141zm19.922-24.14h-7.032v10.078l2.813-2.11a1.17 1.17 0 011.406 0l2.813 2.11zm2.343 17.109c.648 0 1.172.524 1.172 1.172v2.343a1.172 1.172 0 11-2.344 0v-2.343c0-.648.525-1.172 1.172-1.172zm4.688-4.688a1.172 1.172 0 11-.001 2.345 1.172 1.172 0 010-2.345zm0 4.688c.647 0 1.172.524 1.172 1.172v2.343a1.172 1.172 0 11-2.344 0v-2.343c0-.648.525-1.172 1.172-1.172z" />
    </defs>
    <use fill="#d7dde3" xlink:href="#ava" transform="translate(-862 -824)" />
    <use fill="#ff9000" xlink:href="#avb" transform="translate(-862 -824)" />
</svg>