<svg viewBox="0 0 81 59" id="image-leasing" xmlns="http://www.w3.org/2000/svg" xmlns:xlink="http://www.w3.org/1999/xlink">
    <defs>
        <path id="bia"
            d="M365.796 1424H355v9.266a5.74 5.74 0 01-5.733 5.733h-25.893c.454-.483.717-1.029.717-1.644V1437h25.176a3.738 3.738 0 003.733-3.733v-44.534a3.738 3.738 0 00-3.733-3.733h-28.534a3.738 3.738 0 00-3.733 3.733v17.563a31.79 31.79 0 00-2-.242v-17.32a5.74 5.74 0 015.733-5.734h28.534a5.74 5.74 0 015.733 5.733V1390h10.796a3.207 3.207 0 013.204 3.202v27.594a3.207 3.207 0 01-3.204 3.203zM357 1392h-2v30h2zm4 0h-2v30h2zm6 1.202c0-.663-.54-1.203-1.204-1.203H363v30h2.796c.664 0 1.204-.54 1.204-1.203zm-2 8.797a1 1 0 110-2 1 1 0 010 2zm0-5a1 1 0 110-2 1 1 0 010 2zm-40.909 36H327v-3h-2.909v-2H329v7h-4.909zm4.909-30v7h-4.961c-.22-1.15-1.361-2.047-3.04-2.702V1403zm-6 5h4v-3h-4zm4 8v-3h-2.909v-2H329v7h-4.909v-2zm2 10h-4.909v-2H327v-3h-2.909v-2H329zm12-23h8v7h-8zm2 5h4v-3h-4zm6 27h-8v-16h8zm-2-14h-4v12h4zm-6-10h8v7h-8zm2 5h4v-3h-4zm-23-28h30v13h-30zm2 11h26v-9h-26zm23-1a1 1 0 01-1-1v-3a.999.999 0 01-.707-1.707l.999-.998a1.002 1.002 0 011.708.705v5a1 1 0 01-1 1zm-4 0a1 1 0 01-1-1v-3a.999.999 0 01-.707-1.707l.999-.998a1.004 1.004 0 011.09-.218.997.997 0 01.618.923v5a1 1 0 01-1 1zm-4.293-.293a.997.997 0 01-1.414 0 .998.998 0 010-1.413l1-1a.999.999 0 111.414 1.414zM332 1398a1 1 0 01-1-1v-3a.999.999 0 01-.707-1.707l.999-1a1.003 1.003 0 011.09-.217.997.997 0 01.618.923v5a1 1 0 01-1 1zm-1 5h8v7h-8zm2 5h4v-3h-4zm-2 3h8v7h-8zm2 5h4v-3h-4zm6 19h-8v-7h8zm-2-5h-4v3h4zm-6-11h8v7h-8zm2 5h4v-3h-4z" />
        <path id="bib"
            d="M324.091 1410.402v26.953c0 3.086-6.4 4.492-12.35 4.492-5.95 0-12.35-1.406-12.35-4.492v-26.953c0-3.086 6.4-4.492 12.35-4.492 5.95 0 12.35 1.406 12.35 4.492zm-2.245 25.186c-2.388 1.2-6.336 1.767-10.105 1.767-3.77 0-7.716-.561-10.105-1.765v1.765c.17.607 3.537 2.246 10.105 2.246 6.568 0 9.935-1.64 10.105-2.263zm0-4.492c-2.388 1.2-6.336 1.767-10.105 1.767-3.77 0-7.716-.562-10.105-1.765v1.765c.17.606 3.537 2.246 10.105 2.246 6.568 0 9.935-1.64 10.105-2.263zm0-4.492c-2.388 1.2-6.336 1.767-10.105 1.767-3.77 0-7.716-.562-10.105-1.766v1.766c.17.606 3.537 2.246 10.105 2.246 6.568 0 9.935-1.64 10.105-2.263zm0-4.492c-2.388 1.2-6.336 1.767-10.105 1.767-3.77 0-7.716-.562-10.105-1.766v1.766c.17.606 3.537 2.246 10.105 2.246 6.568 0 9.935-1.64 10.105-2.263zm0-4.492c-2.388 1.2-6.336 1.766-10.105 1.766-3.77 0-7.716-.567-10.105-1.765v1.765c.17.607 3.537 2.246 10.105 2.246 6.568 0 9.935-1.64 10.105-2.262zm0-4.492c-2.388 1.199-6.336 1.766-10.105 1.766-3.77 0-7.716-.567-10.105-1.765v1.765c.17.606 3.537 2.246 10.105 2.246 6.568 0 9.935-1.64 10.105-2.263zm0-2.726c-.225-.636-3.593-2.246-10.105-2.246-6.558 0-9.924 1.634-10.105 2.26v.006c.18.591 3.547 2.226 10.105 2.226 6.512 0 9.88-1.61 10.105-2.246zm-12.86-16.91c0 5.803-4.696 10.508-10.489 10.508-5.79-.006-10.483-4.708-10.489-10.509 0-5.803 4.696-10.508 10.49-10.508 5.792 0 10.489 4.705 10.489 10.508zm-1.907 0c0-4.749-3.842-8.598-8.582-8.598-4.737.005-8.576 3.851-8.582 8.597 0 4.749 3.843 8.598 8.582 8.598 4.74 0 8.582-3.85 8.582-8.598zm-12.334-.352h1.185v-4.935a14.372 14.372 0 012.73-.256c.52 0 1.02.045 1.5.135.48.09.9.255 1.26.495s.647.57.862.99c.215.42.323.96.323 1.62 0 .61-.105 1.125-.315 1.546-.21.42-.49.762-.84 1.027a3.33 3.33 0 01-1.2.57c-.45.115-.92.173-1.41.173h-1.02v.87h2.4v1.364h-2.4v1.86h-1.89v-1.86h-1.185v-1.365h1.185v-.87h-1.185zm3.075-.046h.78c.27 0 .527-.032.772-.097s.458-.167.638-.308c.18-.14.322-.327.427-.562.105-.235.158-.517.158-.847 0-.61-.165-1.043-.495-1.298-.33-.255-.755-.383-1.275-.383-.2 0-.39.008-.57.023a4.76 4.76 0 00-.435.053z" />
    </defs>
    <use fill="#d7dde3" xlink:href="#bia" transform="translate(-288 -1383)" />
    <use fill="#ff9000" xlink:href="#bib" transform="translate(-288 -1383)" />
</svg>