<svg viewBox="0 0 50 60" id="image-timer" xmlns="http://www.w3.org/2000/svg" xmlns:xlink="http://www.w3.org/1999/xlink">
    <defs>
        <path id="cka" 
            d="M636.503 843.992A24.344 24.344 0 01642 859.39c0 13.57-11.215 24.61-25 24.61s-25-11.04-25-24.61a24.344 24.344 0 015.497-15.398l-2.563-2.523a3.48 3.48 0 010-4.971 3.615 3.615 0 015.05 0l2.737 2.693a25.21 25.21 0 019.517-3.961v-3.496h-2.381c-.657 0-1.19-.525-1.19-1.172v-3.047c0-1.938 1.602-3.515 3.571-3.515h9.524c1.97 0 3.571 1.577 3.571 3.515v3.047c0 .647-.533 1.172-1.19 1.172h-2.381v3.496a25.212 25.212 0 019.517 3.961l2.736-2.693a3.615 3.615 0 015.05 0 3.48 3.48 0 010 4.971zm-38.202-5.837a1.206 1.206 0 00-1.683 0 1.161 1.161 0 000 1.657l2.46 2.421a25.161 25.161 0 011.74-1.6zm24.651-8.765v-1.875c0-.646-.533-1.172-1.19-1.172h-9.524c-.657 0-1.19.526-1.19 1.172v1.875zm-8.333 2.344v3.158a26.018 26.018 0 014.762 0v-3.158zm16.064 9.924A22.79 22.79 0 00617 837.125a22.787 22.787 0 00-13.683 4.534 22.69 22.69 0 00-3.313 3.038 22.039 22.039 0 00-5.623 14.693c0 12.278 10.147 22.266 22.619 22.266s22.619-9.988 22.619-22.266a22.039 22.039 0 00-5.624-14.693 22.703 22.703 0 00-3.312-3.039zm6.7-3.503a1.205 1.205 0 00-1.684 0l-2.517 2.478c.605.506 1.186 1.04 1.74 1.6l2.46-2.421a1.16 1.16 0 000-1.657zm-19.193 35.298v1.127a15.462 15.462 0 008.874-3.625l-.805-.792a1.159 1.159 0 010-1.658 1.205 1.205 0 011.684 0l.805.792a14.968 14.968 0 003.682-8.735h-1.144a1.18 1.18 0 01-1.19-1.172 1.18 1.18 0 011.19-1.171h1.144a14.97 14.97 0 00-3.674-8.726l1.577-1.752c2.913 3.221 4.524 7.31 4.524 11.65 0 4.66-1.838 9.047-5.176 12.364-.019.02-.037.042-.057.062a.883.883 0 01-.065.057c-3.369 3.286-7.825 5.095-12.559 5.095-4.735 0-9.19-1.81-12.56-5.095l-.064-.057c-.02-.02-.04-.042-.058-.063-3.337-3.317-5.175-7.704-5.175-12.364 0-4.66 1.838-9.047 5.176-12.364.019-.021.037-.042.057-.062a1.11 1.11 0 01.072-.065 17.978 17.978 0 017.501-4.37 1.193 1.193 0 011.479.791 1.169 1.169 0 01-.805 1.456 15.582 15.582 0 00-5.685 3.052l.803.79a1.16 1.16 0 010 1.658 1.197 1.197 0 01-.843.343c-.304 0-.609-.114-.841-.343l-.805-.793a14.97 14.97 0 00-3.683 8.736h1.145c.658 0 1.19.524 1.19 1.171a1.18 1.18 0 01-1.19 1.172h-1.145a14.969 14.969 0 003.683 8.735l.805-.792a1.205 1.205 0 011.684 0 1.16 1.16 0 010 1.658l-.805.792a15.458 15.458 0 008.873 3.625v-1.127A1.18 1.18 0 01617 872.28c.658 0 1.19.524 1.19 1.172z"/>
        <path id="ckb" 
            d="M627.447 850.553a1.213 1.213 0 01-.346.066c-.229 0-.448-.086-.646-.215.217.446.154.989-.216 1.35l-6.011 5.873c.241.516.35 1.076.332 1.63.002.045.011.088.011.133 0 1.94-1.602 3.516-3.571 3.516-1.97 0-3.572-1.577-3.572-3.516 0-.261.04-.512.094-.757a3.449 3.449 0 011.007-2.096c.373-.364.817-.59 1.28-.752v-8.113a1.18 1.18 0 011.19-1.172 1.18 1.18 0 011.191 1.172v8.132c.124.045.255.06.374.12l6.012-5.873c.398-.39.998-.412 1.453-.116a1.151 1.151 0 01.23-1.317l.803-.79a15.589 15.589 0 00-5.686-3.052 1.17 1.17 0 01-.804-1.456c.186-.62.847-.975 1.479-.792a17.984 17.984 0 017.503 4.373 1.077 1.077 0 01.128.126c.218.217.411.45.616.675zm-11.26 9.357c.459.47 1.208.484 1.67.033a1.13 1.13 0 00.313-.65 1.17 1.17 0 10-2.31-.146c.017.276.118.55.327.763zm.813-15.754c-.657 0-1.19-.525-1.19-1.172 0-.647.533-1.172 1.19-1.172.657 0 1.19.526 1.19 1.172 0 .647-.533 1.172-1.19 1.172z"/>
    </defs>
    <use fill="#d7dde3" xlink:href="#cka" transform="translate(-592 -824)"/>
    <use fill="#ff9000" xlink:href="#ckb" transform="translate(-592 -824)"/>
</svg>