<svg viewBox="0 0 49 60" id="image-warranty" xmlns="http://www.w3.org/2000/svg" xmlns:xlink="http://www.w3.org/1999/xlink">
    <defs>
        <path id="cpa"
            d="M1483.833 884h-28c-3.42 0-5.833-2.926-5.833-6.11v-42.172h-5.833a1.17 1.17 0 01-1.167-1.171v-5.86c0-2.584 2.093-4.687 4.667-4.687h33.833c3.216 0 5.833 2.628 5.833 5.86v44.765h3.5a1.17 1.17 0 011.167 1.172c0 4.523-3.664 8.203-8.167 8.203zM1450 828.687a2.337 2.337 0 00-2.333-2.344 2.341 2.341 0 00-2.334 2.344v4.688H1450zm35 1.172c0-1.939-1.57-3.516-3.5-3.516h-29.79c.399.696.623 1.5.623 2.344v49.202c0 1.949 1.408 3.767 3.5 3.767 1.93 0 3.5-1.577 3.5-3.516v-2.343a1.17 1.17 0 011.167-1.172h24.5zm-23.333 47.098v1.171a5.882 5.882 0 01-1.17 3.528h23.336c2.817 0 5.175-2.028 5.716-4.7zm-4.667-8.895c0-.647.522-1.171 1.167-1.171h7c.644 0 1.166.524 1.166 1.171a1.17 1.17 0 01-1.166 1.172h-7a1.17 1.17 0 01-1.167-1.172zm4.667-21.093a1.17 1.17 0 011.166-1.172h16.333a1.17 1.17 0 011.167 1.172 1.17 1.17 0 01-1.167 1.171h-16.333a1.169 1.169 0 01-1.166-1.171zm17.5-5.86h-16.334a1.17 1.17 0 01-1.166-1.172 1.17 1.17 0 011.166-1.172h16.333a1.17 1.17 0 011.167 1.172 1.17 1.17 0 01-1.167 1.172zm0-7.031h-21a1.17 1.17 0 01-1.167-1.172 1.17 1.17 0 011.167-1.172h21a1.17 1.17 0 011.166 1.172 1.17 1.17 0 01-1.167 1.172zm-21 4.687a1.17 1.17 0 011.166 1.172 1.17 1.17 0 01-1.166 1.172 1.17 1.17 0 01-1.167-1.172 1.17 1.17 0 011.167-1.172zm0 7.032a1.17 1.17 0 011.166 1.172 1.17 1.17 0 01-1.166 1.171 1.17 1.17 0 01-1.167-1.171 1.17 1.17 0 011.167-1.172zm0 14.062h7a1.17 1.17 0 011.166 1.172 1.17 1.17 0 01-1.166 1.172h-7a1.17 1.17 0 01-1.167-1.172 1.17 1.17 0 011.167-1.172zm0-7.031h7a1.17 1.17 0 011.166 1.172 1.17 1.17 0 01-1.166 1.172h-7A1.17 1.17 0 011457 854a1.17 1.17 0 011.167-1.172z" />
        <path id="cpb"
            d="M1475.667 850.484c3.86 0 7 3.155 7 7.031a6.976 6.976 0 01-2.334 5.237v7.654c0 .432-.237.83-.616 1.033a1.162 1.162 0 01-1.198-.058l-2.852-1.91-2.853 1.91c-.358.24-.819.262-1.198.058a1.17 1.17 0 01-.616-1.033v-7.654a6.975 6.975 0 01-2.333-5.237c0-3.877 3.14-7.03 7-7.03zm2.333 17.733v-4.07a6.96 6.96 0 01-2.333.4 6.959 6.959 0 01-2.334-.4v4.07l1.686-1.13a1.163 1.163 0 011.295 0zm-2.333-15.39c-2.573 0-4.667 2.104-4.667 4.688a4.675 4.675 0 004.667 4.688 4.676 4.676 0 004.666-4.688c0-2.584-2.093-4.687-4.666-4.687z" />
    </defs>
    <use fill="#d7dde3" xlink:href="#cpa" transform="translate(-1443 -824)" />
    <use fill="#ff9000" xlink:href="#cpb" transform="translate(-1443 -824)" />
</svg>