<svg viewBox="0 0 66 60" id="image-data" xmlns="http://www.w3.org/2000/svg" xmlns:xlink="http://www.w3.org/1999/xlink">
    <defs>
        <path id="asa"
            d="M356.066 1499.006v4a3.005 3.005 0 01-3.01 2.999h-40.117a3.005 3.005 0 01-3.01-3v-3.999a3.004 3.004 0 013.01-2.999h40.117a3.005 3.005 0 013.01 3zm-2.007 0c0-.551-.45-1-1.003-1h-40.117c-.554 0-1.003.449-1.003 1v4c0 .552.449 1 1.003 1h40.117c.554 0 1.003-.448 1.003-1zm-2.468 3.173a1.94 1.94 0 01-1.6.827 1.962 1.962 0 01-1.931-1.609 1.908 1.908 0 01.323-1.445 1.964 1.964 0 013.53.781 1.9 1.9 0 01-.322 1.446zm-1.602-1.048l-.005-.125-.045.08c.002.02.005.045.05.045zm-9.376-.125c0 .552-.45 1-1.003 1h-25.065a1.002 1.002 0 01-1.004-1c0-.552.45-1 1.004-1h25.065c.554 0 1.003.448 1.003 1zm5.756 0c0 .552-.45 1-1.004 1h-2.669a1.002 1.002 0 01-1.003-1c0-.552.45-1 1.003-1h2.67c.554 0 1.003.448 1.003 1zm-17.68-13.315a1.006 1.006 0 01-1.418.025l-1.298-1.293v6.585c0 .552-.449 1-1.003 1a1.002 1.002 0 01-1.004-1v-6.585l-1.297 1.293a1.006 1.006 0 01-1.394 0 .997.997 0 01-.025-1.413l3.01-3a1.005 1.005 0 011.42 0l3.01 3a.997.997 0 010 1.388zm16.056 3.025l-3.01 2.999c-.393.39-1.028.39-1.42 0l-3.01-3a.998.998 0 010-1.389 1.006 1.006 0 011.419-.024l1.297 1.293v-6.585c0-.552.45-1 1.004-1s1.003.448 1.003 1v6.585l1.298-1.293a1.006 1.006 0 011.394 0 .997.997 0 01.025 1.414z" />
        <path id="asb"
            d="M366 1492.008c0 3.865-3.145 6.998-7.024 6.998a1.002 1.002 0 01-1.003-1c0-.551.449-1 1.003-1 2.77 0 5.017-2.237 5.017-4.998 0-2.76-2.246-4.999-5.017-4.999a5.158 5.158 0 00-2.966.937 1.006 1.006 0 01-.844.144.999.999 0 01-.698-1.231c.285-1.008.432-2.051.436-3.1-.106-5.257-6.637-9.832-11.71-11.285-6.388-1.83-16.056 1.848-17.892 8.214a1.005 1.005 0 01-1.626.487 6.715 6.715 0 00-4.4-1.664c-3.637-.031-6.613 2.875-6.653 6.499a6.33 6.33 0 00.486 2.394c.179.442.02.95-.381 1.211a1.006 1.006 0 01-1.39-.29 5.022 5.022 0 00-4.151-2.314c-2.77-.045-5.053 2.156-5.098 4.917-.045 2.76 2.164 5.034 4.935 5.08.554 0 1.003.447 1.003.999s-.449 1-1.003 1c-3.88 0-7.024-3.134-7.024-6.999 0-3.865 3.145-6.998 7.024-6.998a7.184 7.184 0 013.595.957 8.596 8.596 0 011.297-4.379c2.517-4.045 7.85-5.291 11.91-2.783 2.099-5.239 10.15-8.71 15.81-8.805 7.757-.13 17.152 6.031 17.282 13.76 0 .529-.034 1.056-.1 1.58a7.16 7.16 0 012.158-.33c3.88 0 7.024 3.133 7.024 6.998zm-9.934 18.996v3.999c0 1.656-1.348 3-3.01 3h-40.117a3.005 3.005 0 01-3.01-3v-4a3.003 3.003 0 013.01-2.998h40.117a3.005 3.005 0 013.01 2.999zm-2.007 0c0-.552-.45-1-1.003-1h-40.117c-.554 0-1.003.448-1.003 1v3.999c0 .552.449 1 1.003 1h40.117c.554 0 1.003-.448 1.003-1zm-1.83 1.987a1.941 1.941 0 01-1.933 1.95 1.95 1.95 0 01-1.956-1.938 1.94 1.94 0 011.932-1.937 1.941 1.941 0 011.957 1.925zm-1.933-.05l-.05.063c0 .03.02.062.05.062zm-9.482.063c0 .552-.45 1-1.004 1h-25.065a1.002 1.002 0 01-1.003-1c0-.553.45-1 1.003-1h25.065c.555 0 1.004.447 1.004 1zm6.196 0c0 .552-.45 1-1.003 1h-2.67a1.002 1.002 0 01-1.003-1c0-.553.45-1 1.004-1h2.669c.554 0 1.003.447 1.003 1zm9.056 9.997v4a3.005 3.005 0 01-3.01 2.999h-40.117a3.005 3.005 0 01-3.01-3v-3.999c0-1.656 1.347-3 3.01-3h40.117a3.005 3.005 0 013.01 3zm-2.007 0c0-.552-.45-1-1.003-1h-40.117c-.554 0-1.003.448-1.003 1v4c0 .551.449.999 1.003.999h40.117c.554 0 1.003-.448 1.003-1zm-1.83 1.988a1.941 1.941 0 01-1.933 1.95 1.95 1.95 0 01-1.956-1.939 1.94 1.94 0 011.932-1.937 1.942 1.942 0 011.957 1.926zm-1.933-.05l-.05.062c0 .03.02.062.05.062zm-9.482.062c0 .552-.45 1-1.004 1h-25.065a1.002 1.002 0 01-1.003-1c0-.553.45-1 1.003-1h25.065c.555 0 1.004.447 1.004 1zm6.196 0c0 .552-.45 1-1.003 1h-2.67a1.002 1.002 0 01-1.003-1c0-.553.45-1 1.004-1h2.669c.554 0 1.003.447 1.003 1z" />
    </defs>
    <use fill="#ff9000" xlink:href="#asa" transform="translate(-300 -1470)" />
    <use fill="#d7dde3" xlink:href="#asb" transform="translate(-300 -1470)" />
</svg>