<svg viewBox="0 0 63 61" id="image-stock" xmlns="http://www.w3.org/2000/svg" xmlns:xlink="http://www.w3.org/1999/xlink">
    <defs>
        <path id="cfa"
            d="M353.95 1334.033c0 .617-.5 1.116-1.117 1.116h-26.8a1.116 1.116 0 01-1.116-1.116v-13.4c0-.618.5-1.117 1.116-1.117h12.284v-12.284c0-.618.499-1.117 1.116-1.117h13.4c.618 0 1.117.5 1.117 1.117zm-2.233-12.284h-2.234v3.35c0 .618-.5 1.117-1.117 1.117H343.9c-.618 0-1.117-.5-1.117-1.117v-3.35h-2.233v11.167h11.167zm-6.7 2.233h2.233v-2.233h-2.233zm-6.7-2.233h-2.234v3.35c0 .618-.5 1.117-1.117 1.117H330.5c-.616 0-1.117-.5-1.117-1.117v-3.35h-2.233v11.167h11.167zm-6.7 2.233h2.233v-2.233h-2.233zm20.1-15.633h-2.234v3.35c0 .617-.5 1.116-1.117 1.116H343.9a1.115 1.115 0 01-1.117-1.116v-3.35h-2.233v11.167h11.167zm-6.7 2.233h2.233v-2.233h-2.233z" />
        <path id="cfb"
            d="M366 1288.248v45.785c0 .617-.5 1.116-1.117 1.116H359.3a1.115 1.115 0 01-1.117-1.116v-30.151h-47.367v30.15c0 .618-.5 1.117-1.116 1.117h-5.583a1.116 1.116 0 01-1.117-1.116v-46.902c0-.406.221-.781.577-.977l30.384-10.167c.345-.19.763-.184 1.104.015l30.383 11.284c.342.2.552.566.552.962zm-7.817 6.7h-47.367v2.234h47.367zm-47.367 6.7h47.367v-2.233h-47.367zm52.95 31.268v-44.028l-29.283-10.64-29.25 9.542v45.126h3.35v-39.084c0-.617.5-1.117 1.117-1.117h49.6c.617 0 1.117.5 1.117 1.117v39.084zm-22.566-48.018v4.467c0 .616-.5 1.117-1.117 1.117h-11.166c-.617 0-1.117-.5-1.117-1.117v-4.467c0-.616.5-1.117 1.117-1.117h11.166c.618 0 1.117.5 1.117 1.117zm-2.233 1.117h-8.934v2.233h8.934z" />
    </defs>
    <use fill="#ff9000" xlink:href="#cfa" transform="translate(-303 -1275)" />
    <use fill="#d7dde3" xlink:href="#cfb" transform="translate(-303 -1275)" />
</svg>