<svg fill="#0684bd" viewBox="0 0 18 18" id="image-search" xmlns="http://www.w3.org/2000/svg" xmlns:xlink="http://www.w3.org/1999/xlink">
        <path d="M1049.516 68c1.843.031 3.375.664 4.593 1.898 1.219 1.235 1.844 2.774 1.875 4.617a6.58 6.58 0 01-.398 2.297 5.999 5.999 0 01-1.149 1.922l.282.281h.797l4.968 4.97-1.5 1.5-4.968-4.97v-.796l-.282-.282c-.562.5-1.203.884-1.922 1.149a6.571 6.571 0 01-2.296.398c-1.845-.03-3.384-.656-4.618-1.875-1.234-1.219-1.867-2.75-1.898-4.594.03-1.843.664-3.382 1.898-4.617 1.234-1.234 2.773-1.867 4.618-1.898zm0 2.015c-1.282.032-2.344.47-3.188 1.313-.844.844-1.266 1.907-1.266 3.187 0 1.282.422 2.344 1.266 3.188.844.844 1.906 1.266 3.188 1.266 1.28 0 2.343-.422 3.187-1.266.844-.844 1.266-1.906 1.266-3.188 0-1.28-.422-2.343-1.266-3.187-.844-.844-1.906-1.281-3.187-1.313z" transform="translate(-1043 -68)"/>
</svg>

