<svg xmlns="http://www.w3.org/2000/svg" width="20" height="14" viewBox="0 0 20 14">
  <metadata><?xpacket begin="﻿" id="W5M0MpCehiHzreSzNTczkc9d"?>
<x:xmpmeta xmlns:x="adobe:ns:meta/" x:xmptk="Adobe XMP Core 5.6-c142 79.160924, 2017/07/13-01:06:39        ">
   <rdf:RDF xmlns:rdf="http://www.w3.org/1999/02/22-rdf-syntax-ns#">
      <rdf:Description rdf:about=""/>
   </rdf:RDF>
</x:xmpmeta>                      
<?xpacket end="w"?></metadata>
<defs>
    <style>
      .cls-1 {
        fill: #ccc;
        fill-rule: evenodd;
      }
    </style>
  </defs>
  <path id="keyboard-icon" class="cls-1" d="M568,3233h-2v-2h2v2Zm0,3h-2v-2h2v2Zm-3-3h-2v-2h2v2Zm0,3h-2v-2h2v2Zm0,4h-8v-2h8v2Zm-9-7h-2v-2h2v2Zm0,3h-2v-2h2v2Zm1-2h2v2h-2v-2Zm0-3h2v2h-2v-2Zm3,3h2v2h-2v-2Zm0-3h2v2h-2v-2Zm9-3H553a2,2,0,0,0-1.989,2L551,3240a2,2,0,0,0,2,2h16a2.005,2.005,0,0,0,2-2v-10A2.005,2.005,0,0,0,569,3228Z" transform="translate(-551 -3228)"/>
</svg>
