<svg xmlns="http://www.w3.org/2000/svg" width="18" height="18" viewBox="0 0 18 18">
  <metadata><?xpacket begin="﻿" id="W5M0MpCehiHzreSzNTczkc9d"?>
<x:xmpmeta xmlns:x="adobe:ns:meta/" x:xmptk="Adobe XMP Core 5.6-c142 79.160924, 2017/07/13-01:06:39        ">
   <rdf:RDF xmlns:rdf="http://www.w3.org/1999/02/22-rdf-syntax-ns#">
      <rdf:Description rdf:about=""/>
   </rdf:RDF>
</x:xmpmeta>                      
<?xpacket end="w"?></metadata>
<defs>
    <style>
      .cls-1 {
        fill: #ccc;
        fill-rule: evenodd;
      }
    </style>
  </defs>
  <path id="memory_icon" data-name="memory icon" class="cls-1" d="M565,3299H555v-10h10v10Zm4-6v-2h-2v-2a2.005,2.005,0,0,0-2-2h-2v-2h-2v2h-2v-2h-2v2h-2a2.007,2.007,0,0,0-2,2v2h-2v2h2v2h-2v2h2v2a2.007,2.007,0,0,0,2,2h2v2h2v-2h2v2h2v-2h2a2.005,2.005,0,0,0,2-2v-2h2v-2h-2v-2h2Zm-8,2h-2v-2h2v2Zm2-4h-6v6h6v-6Z" transform="translate(-551 -3285)"/>
</svg>
