<svg xmlns="http://www.w3.org/2000/svg" width="13" height="22" viewBox="0 0 13 22">
  <metadata><?xpacket begin="﻿" id="W5M0MpCehiHzreSzNTczkc9d"?>
<x:xmpmeta xmlns:x="adobe:ns:meta/" x:xmptk="Adobe XMP Core 5.6-c142 79.160924, 2017/07/13-01:06:39        ">
   <rdf:RDF xmlns:rdf="http://www.w3.org/1999/02/22-rdf-syntax-ns#">
      <rdf:Description rdf:about=""/>
   </rdf:RDF>
</x:xmpmeta>                         
<?xpacket end="w"?></metadata>
<defs>
    <style>
      .cls-1 {
        fill: #ccc;
        fill-rule: evenodd;
      }
    </style>
  </defs>
  <path id="phone_icon" data-name="phone icon" class="cls-1" d="M565,3422h-9v-14h9v14Zm-4.5,4a1.5,1.5,0,1,1,1.5-1.5A1.5,1.5,0,0,1,560.5,3426Zm4-21h-8a2.5,2.5,0,0,0-2.5,2.5v17a2.5,2.5,0,0,0,2.5,2.5h8a2.5,2.5,0,0,0,2.5-2.5v-17A2.5,2.5,0,0,0,564.5,3405Z" transform="translate(-554 -3405)"/>
</svg>
