<svg viewBox="0 0 77 77" id="image-piggy" xmlns="http://www.w3.org/2000/svg" xmlns:xlink="http://www.w3.org/1999/xlink">
    <defs>
        <path id="bpa" 
            d="M422.661 1722.516c.563.24 1.11.485 1.62.734 10.63 5.123 17.184 15.172 16.692 25.595a23.981 23.981 0 01-11.5 19.213v4.948a3.833 3.833 0 01-3.834 3.832h-8.946a3.833 3.833 0 01-3.833-3.832v-.081a48.15 48.15 0 01-4.45.054c-1.08-.036-2.148-.086-3.217-.136v.163a3.833 3.833 0 01-3.834 3.832h-8.945a3.833 3.833 0 01-3.833-3.832v-2.346a16.645 16.645 0 01-8.34-4.708c-.249-.29-.475-.575-.687-.873a13.453 13.453 0 00-4.446-3.87 19.71 19.71 0 00-2.348-1.014 16.289 16.289 0 01-3.62-1.748l-.18-.118c-1.505-.976-2.35-1.674-2.507-2.555l-2.078-10.45a3.97 3.97 0 013.359-4.726 10.304 10.304 0 005.727-2.112c.862-.87 1.706-1.81 2.522-2.72l.438-.485a15.692 15.692 0 01-1.897-7.154 2.565 2.565 0 012.075-2.607 22.187 22.187 0 013.054-.383 19.588 19.588 0 01.227-3.64 2.562 2.562 0 012.541-2.145c2.083.012 7.002.371 10.138 3.239a35.34 35.34 0 012.398-1.014c.077.177.985 1.768 1.242 2.286a32.51 32.51 0 00-4.779 2.172 40.894 40.894 0 00-2.778 1.74c.341.316.655.66.937 1.03a6.34 6.34 0 011.014 6.834 8.298 8.298 0 01-7.148 4.153 7.7 7.7 0 01-5.452-2.44l-.107.119c-.835.93-1.702 1.894-2.608 2.81-1.789 1.802-4.907 2.542-7.207 2.844-.384.052-.728.26-.95.577a1.414 1.414 0 00-.239 1.114l2.045 10.314c.437.398.915.751 1.424 1.053l.23.152a14.182 14.182 0 003.088 1.469 22 22 0 012.644 1.15 16.021 16.021 0 015.31 4.62c.18.252.361.479.556.705a13.23 13.23 0 006.402 3.715v-1.376a1.278 1.278 0 012.556 0v6.388c0 .705.572 1.277 1.277 1.277h8.945c.706 0 1.278-.572 1.278-1.277v-3.833a1.278 1.278 0 012.556 0v1.114c1.098.05 2.194.101 3.3.138 1.497.057 2.95.014 4.367-.07v-1.182a1.278 1.278 0 012.556 0v3.833c0 .705.572 1.277 1.277 1.277h8.945c.707 0 1.279-.572 1.279-1.277v-7.666c0-.705.572-1.277 1.277-1.277a1.26 1.26 0 011.212.95 21.287 21.287 0 009.01-16.29c.447-9.396-5.54-18.493-15.25-23.179a36.392 36.392 0 00-1.908-.848c.369-.636.639-1.044 1.403-2.18zm-4.738 5.439a22.79 22.79 0 015.927 3.145 1.278 1.278 0 11-1.534 2.044c-9.618-7.211-25.621-3.647-25.78-3.61a1.278 1.278 0 11-.576-2.49 35.845 35.845 0 012.507-.455c.099-.003 2.656-.323 3.58-.397a42.212 42.212 0 0112.562.792c1.056.226 2.276.65 3.314.97zm-35.715-2.783a12.26 12.26 0 014.173 1.058 44.67 44.67 0 013.673-2.354 14.627 14.627 0 00-7.64-1.969 16.152 16.152 0 00-.206 3.265zm-5.127 2.852c.308 6.33 3.514 9.213 6.364 9.213a5.78 5.78 0 004.857-2.735 3.831 3.831 0 00-.766-4.158 7.941 7.941 0 00-6.39-2.683c-.04.008-.097.008-.119.008-.021 0-.04-.012-.063-.012a19.2 19.2 0 00-3.869.367zm3.56 14.882a2.016 2.016 0 110 4.032 2.016 2.016 0 010-4.032z"/>
        <path id="bpb" 
            d="M414.61 1726.984c4.31-2.231 8.228-8.543 6.892-14.349a12.756 12.756 0 00-12.476-9.89 12.76 12.76 0 00-12.248 9.118c-1.612 5.416.679 11.033 5.27 14.329.092-.004-2.94.768-2.969.761-3.117-2.831-5.08-6.91-5.08-11.453 0-6.599 4.132-12.22 9.942-14.456 5.044-1.775 10.786-.835 15.027 2.771a15.326 15.326 0 013.693 18.701c-.371.668-1.175 1.942-1.403 2.18-.937 1.252-2.008 2.431-3.335 3.259-.083-.036-3.348-.956-3.314-.97zm-3.108-8.732h-3.61v1.204h3.61c.338 0 .623.119.855.357.232.238.348.523.348.855 0 .332-.116.614-.348.846a1.163 1.163 0 01-.855.348h-3.61v2.406c0 .338-.115.624-.347.855a1.151 1.151 0 01-.846.348 1.15 1.15 0 01-.846-.348 1.162 1.162 0 01-.348-.855v-2.406h-1.203a1.16 1.16 0 01-.855-.348 1.15 1.15 0 01-.348-.846c0-.332.116-.617.348-.855.231-.238.517-.357.855-.357h1.203v-1.204h-1.203a1.16 1.16 0 01-.855-.347 1.15 1.15 0 01-.348-.846c0-.332.116-.617.348-.856.231-.238.517-.357.855-.357h1.203v-8.422c0-.325.116-.607.348-.846.232-.238.51-.357.836-.357h4.813c1.09 0 2.099.27 3.027.808a5.926 5.926 0 012.19 2.19c.532.922.799 1.927.799 3.018 0 1.09-.267 2.096-.8 3.017a5.923 5.923 0 01-2.19 2.19 5.917 5.917 0 01-3.026.808zm0-9.624h-3.61v7.218h3.61c1.002 0 1.855-.354 2.557-1.062a3.5 3.5 0 001.052-2.557 3.47 3.47 0 00-1.052-2.547c-.702-.702-1.555-1.052-2.557-1.052z"/>
    </defs>
    <use fill="#0684bd" xlink:href="#bpa" transform="translate(-364 -1700)"/>
    <use fill="#ff9000" xlink:href="#bpb" transform="translate(-364 -1700)"/>
</svg>