<svg viewBox="0 0 79 79" id="image-reviews" xmlns="http://www.w3.org/2000/svg" xmlns:xlink="http://www.w3.org/1999/xlink">
    <defs>
        <path id="bua" 
            d="M627.541 1317.48v7.46a2.434 2.434 0 01-2.43 2.432h-8.348a2.434 2.434 0 01-2.431-2.431v-8.03c0-10.175 5.814-12.638 10.691-12.912a1.546 1.546 0 011.63 1.54v4.618c0 .798-.609 1.465-1.403 1.537-.796.072-2.525.23-2.947 3.356h2.807c1.34 0 2.431 1.09 2.431 2.43zm-3.085.656h-3.79c-.853 0-1.543-.69-1.543-1.543 0-5.216 2.378-7.073 4.444-7.702v-1.622c-2.992.56-6.15 2.542-6.15 9.642v7.374h7.039zm18.86-.655v7.46c0 1.34-1.09 2.43-2.431 2.43h-8.348c-1.34 0-2.43-1.09-2.43-2.43v-8.03c0-10.175 5.813-12.638 10.69-12.912a1.546 1.546 0 011.63 1.54v4.618c0 .798-.608 1.465-1.403 1.537-.796.072-2.524.23-2.947 3.356h2.808c1.34 0 2.43 1.09 2.43 2.43zm-3.086 6.805v-6.15h-3.79c-.852 0-1.543-.69-1.543-1.543 0-5.216 2.378-7.073 4.444-7.702v-1.622c-2.992.56-6.149 2.542-6.149 9.642v7.375zm-3.123 33.33c0 .852-.69 1.543-1.543 1.543h-.024a1.543 1.543 0 110-3.086h.024c.852 0 1.543.69 1.543 1.543z"/>
        <path id="bub" 
            d="M650.437 1317.554c0 .406-.165.804-.452 1.091a1.555 1.555 0 01-1.09.452c-.406 0-.804-.165-1.091-.452a1.555 1.555 0 01-.452-1.091c0-.406.165-.804.452-1.091a1.555 1.555 0 011.09-.452c.406 0 .804.165 1.091.452.287.287.452.685.452 1.09zM685 1343.436a27.47 27.47 0 01-6.222 17.395 27.534 27.534 0 01-14.32 9.158v11.468a1.543 1.543 0 01-2.634 1.09l-11.686-11.686h-16.714c-15.122 0-27.424-12.303-27.424-27.425 0-4.66 1.19-9.263 3.443-13.312a1.543 1.543 0 112.696 1.5 24.35 24.35 0 00-3.053 11.812c0 13.42 10.918 24.34 24.338 24.34h17.353c.41 0 .802.162 1.091.451l9.504 9.505v-8.966c0-.73.511-1.36 1.226-1.51 11.193-2.348 19.316-12.366 19.316-23.82 0-13.42-10.918-24.34-24.338-24.34h-1.944a1.543 1.543 0 010-3.085h1.944c15.122 0 27.424 12.303 27.424 27.425zm-18.969-10.509c0 .852-.69 1.543-1.543 1.543h-37.976a1.543 1.543 0 110-3.086h37.976c.853 0 1.543.69 1.543 1.543zm0 8.23c0 .852-.69 1.543-1.543 1.543h-37.976a1.543 1.543 0 010-3.087h37.976c.853 0 1.543.691 1.543 1.544zm0 8.23c0 .851-.69 1.542-1.543 1.542h-37.976a1.543 1.543 0 010-3.086h37.976c.853 0 1.543.691 1.543 1.543zm0 8.229c0 .852-.69 1.543-1.543 1.543h-20.242a1.543 1.543 0 010-3.086h20.242c.852 0 1.543.69 1.543 1.543z"/>
    </defs>
    <use fill="#ff9000" xlink:href="#bua" transform="translate(-606 -1304)"/>
    <use fill="#0684bd" xlink:href="#bub" transform="translate(-606 -1304)"/>
</svg>