<svg xmlns="http://www.w3.org/2000/svg" width="16" height="16" viewBox="0 0 16 16">
  <metadata><?xpacket begin="﻿" id="W5M0MpCehiHzreSzNTczkc9d"?>
<x:xmpmeta xmlns:x="adobe:ns:meta/" x:xmptk="Adobe XMP Core 5.6-c142 79.160924, 2017/07/13-01:06:39        ">
   <rdf:RDF xmlns:rdf="http://www.w3.org/1999/02/22-rdf-syntax-ns#">
      <rdf:Description rdf:about=""/>
   </rdf:RDF>
</x:xmpmeta>                       
<?xpacket end="w"?></metadata>
<defs>
    <style>
      .cls-1 {
        fill: #666;
        fill-rule: evenodd;
      }
    </style>
  </defs>
  <path id="instagram_icon" data-name="instagram icon" class="cls-1" d="M1505.01,4066h-6.08a2.675,2.675,0,0,0-2.93,2.93v6.08a3.083,3.083,0,0,0,.83,2.22,3.137,3.137,0,0,0,2.15.77h6.03a3.057,3.057,0,0,0,2.16-.77,2.862,2.862,0,0,0,.83-2.16v-6.08a3.145,3.145,0,0,0-.77-2.16A3,3,0,0,0,1505.01,4066Zm4.99,9.31a4.762,4.762,0,0,1-1.33,3.43,4.7,4.7,0,0,1-3.38,1.26h-6.58a4.7,4.7,0,0,1-3.38-1.26,4.528,4.528,0,0,1-1.33-3.43v-6.62a4.456,4.456,0,0,1,4.71-4.69h6.64a4.644,4.644,0,0,1,3.38,1.32,4.579,4.579,0,0,1,1.27,3.37v6.62Zm-8-1.31a2,2,0,1,0-2-2A2,2,0,0,0,1502,4074Zm-0.03,2a4,4,0,0,1,0-8A4,4,0,1,1,1501.97,4076Zm4.03-7a1,1,0,1,1,1-1A0.99,0.99,0,0,1,1506,4069Z" transform="translate(-1494 -4064)"/>
</svg>
