<svg viewBox="0 0 182 177" id="image-bg-pat" xmlns="http://www.w3.org/2000/svg" xmlns:xlink="http://www.w3.org/1999/xlink"><defs><path id="afa" d="M1389.082 362.54h-98.131c-21.116 0-38.295-17.168-38.295-38.27 0-21.102 17.18-38.27 38.295-38.27h184.295a7.179 7.179 0 017.18 7.175 7.179 7.179 0 01-7.18 7.176H1290.95c-13.197 0-23.935 10.731-23.935 23.92 0 13.187 10.738 23.918 23.935 23.918h98.13a7.178 7.178 0 017.181 7.176 7.178 7.178 0 01-7.18 7.175zM1453.705 463H1207.18a7.178 7.178 0 01-7.18-7.176 7.178 7.178 0 017.18-7.176h246.525c13.196 0 23.934-10.73 23.934-23.919 0-13.187-10.738-23.918-23.934-23.918h-126.853a7.178 7.178 0 01-7.18-7.176 7.178 7.178 0 017.18-7.176h126.853c21.115 0 38.295 17.169 38.295 38.27 0 21.102-17.18 38.27-38.295 38.27z"/></defs><g clip-path="url(#clip-6246)" opacity=".12" transform="translate(-1309 -286)"><use fill="#000c11" xlink:href="#afa"/></g></svg>